<svg id="visual" viewBox="0 0 960 540" width="960" height="540" xmlns="http://www.w3.org/2000/svg" xmlns:xlink="http://www.w3.org/1999/xlink" version="1.1"><rect x="0" y="0" width="960" height="540" fill="#FFFFFF"></rect><path d="M0 353L22.8 358.2C45.7 363.3 91.3 373.7 137 381.5C182.7 389.3 228.3 394.7 274 396.5C319.7 398.3 365.3 396.7 411.2 395.7C457 394.7 503 394.3 548.8 384.2C594.7 374 640.3 354 686 342C731.7 330 777.3 326 823 329.3C868.7 332.7 914.3 343.3 937.2 348.7L960 354L960 541L937.2 541C914.3 541 868.7 541 823 541C777.3 541 731.7 541 686 541C640.3 541 594.7 541 548.8 541C503 541 457 541 411.2 541C365.3 541 319.7 541 274 541C228.3 541 182.7 541 137 541C91.3 541 45.7 541 22.8 541L0 541Z" fill="#009473"></path><path d="M0 393L22.8 386.8C45.7 380.7 91.3 368.3 137 369.8C182.7 371.3 228.3 386.7 274 388.2C319.7 389.7 365.3 377.3 411.2 377.2C457 377 503 389 548.8 393.8C594.7 398.7 640.3 396.3 686 392.7C731.7 389 777.3 384 823 386.3C868.7 388.7 914.3 398.3 937.2 403.2L960 408L960 541L937.2 541C914.3 541 868.7 541 823 541C777.3 541 731.7 541 686 541C640.3 541 594.7 541 548.8 541C503 541 457 541 411.2 541C365.3 541 319.7 541 274 541C228.3 541 182.7 541 137 541C91.3 541 45.7 541 22.8 541L0 541Z" fill="#5dae93"></path><path d="M0 424L22.8 427.7C45.7 431.3 91.3 438.7 137 435.5C182.7 432.3 228.3 418.7 274 419.5C319.7 420.3 365.3 435.7 411.2 436C457 436.3 503 421.7 548.8 413.3C594.7 405 640.3 403 686 410C731.7 417 777.3 433 823 436.5C868.7 440 914.3 431 937.2 426.5L960 422L960 541L937.2 541C914.3 541 868.7 541 823 541C777.3 541 731.7 541 686 541C640.3 541 594.7 541 548.8 541C503 541 457 541 411.2 541C365.3 541 319.7 541 274 541C228.3 541 182.7 541 137 541C91.3 541 45.7 541 22.8 541L0 541Z" fill="#93c7b4"></path><path d="M0 471L22.8 465.3C45.7 459.7 91.3 448.3 137 445.5C182.7 442.7 228.3 448.3 274 452C319.7 455.7 365.3 457.3 411.2 458.7C457 460 503 461 548.8 461.8C594.7 462.7 640.3 463.3 686 464C731.7 464.7 777.3 465.3 823 464.5C868.7 463.7 914.3 461.3 937.2 460.2L960 459L960 541L937.2 541C914.3 541 868.7 541 823 541C777.3 541 731.7 541 686 541C640.3 541 594.7 541 548.8 541C503 541 457 541 411.2 541C365.3 541 319.7 541 274 541C228.3 541 182.7 541 137 541C91.3 541 45.7 541 22.8 541L0 541Z" fill="#c7e1d6"></path><path d="M0 472L22.8 476.2C45.7 480.3 91.3 488.7 137 495.7C182.7 502.7 228.3 508.3 274 507.8C319.7 507.3 365.3 500.7 411.2 495.3C457 490 503 486 548.8 483.3C594.7 480.7 640.3 479.3 686 480.7C731.7 482 777.3 486 823 490.7C868.7 495.3 914.3 500.7 937.2 503.3L960 506L960 541L937.2 541C914.3 541 868.7 541 823 541C777.3 541 731.7 541 686 541C640.3 541 594.7 541 548.8 541C503 541 457 541 411.2 541C365.3 541 319.7 541 274 541C228.3 541 182.7 541 137 541C91.3 541 45.7 541 22.8 541L0 541Z" fill="#fafafa"></path></svg>